<?xml version="1.0" encoding="utf-8"?>
<!-- Generator: Adobe Illustrator 25.3.1, SVG Export Plug-In . SVG Version: 6.00 Build 0)  -->
<svg version="1.1" id="Слой_1" xmlns="http://www.w3.org/2000/svg" xmlns:xlink="http://www.w3.org/1999/xlink" x="0px" y="0px"
	 viewBox="0 0 610 211" style="enable-background:new 0 0 610 211;" xml:space="preserve">
<style type="text/css">
	.st0{fill:#FDF6F6;}
	.st1{fill:none;}
	.st2{fill-rule:evenodd;clip-rule:evenodd;fill:#FDF6F6;}
</style>
<g>
	<path class="st0" d="M251.8,19.3V27h-25.3v18.3h20.9v7.4h-20.9v25.7H217v-59h34.8V19.3z"/>
	<path class="st0" d="M260.6,14.9c1.1-1.1,2.6-1.6,4.4-1.6s3.3,0.5,4.5,1.6c1.1,1.1,1.7,2.4,1.7,4s-0.6,2.9-1.7,3.9
		s-2.6,1.5-4.5,1.5s-3.3-0.5-4.4-1.5s-1.7-2.3-1.7-3.9C259,17.3,259.5,16,260.6,14.9z M269.8,32.3v46.1h-9.5V32.3H269.8z"/>
	<path class="st0" d="M320,36.7c3.2,3.5,4.9,8.4,4.9,14.8v26.8h-9.5V52.5c0-4.1-1.1-7.3-3.2-9.6s-5-3.4-8.7-3.4
		c-3.8,0-6.8,1.2-9.1,3.6c-2.3,2.4-3.4,6-3.4,10.7v24.5h-9.5v-46h9.5v10.1c1.2-3.5,3.3-6.1,6.2-8c2.9-1.9,6.2-2.8,10-2.8
		C312.5,31.5,316.8,33.3,320,36.7z"/>
	<path class="st0" d="M365.2,34.8c3,2.1,5,4.8,6.3,8.2V32.3h9.5v46.1h-9.5V67.7c-1.2,3.4-3.3,6.1-6.3,8.2s-6.5,3.1-10.7,3.1
		c-4,0-7.6-0.9-10.7-2.8c-3.2-1.9-5.6-4.6-7.4-8.2s-2.7-7.8-2.7-12.6s0.9-9,2.7-12.5c1.8-3.6,4.3-6.3,7.4-8.2s6.7-2.8,10.7-2.8
		C358.6,31.7,362.2,32.7,365.2,34.8z M347.2,44.1c-2.5,2.7-3.8,6.4-3.8,11.2c0,4.7,1.3,8.5,3.8,11.2c2.5,2.7,5.9,4.1,10.2,4.1
		c2.7,0,5.1-0.6,7.2-1.9s3.8-3,5-5.3s1.8-5,1.8-8s-0.6-5.7-1.8-8c-1.2-2.3-2.9-4.1-5-5.4c-2.1-1.3-4.5-1.9-7.2-1.9
		C353.2,40.1,349.8,41.4,347.2,44.1z"/>
	<path class="st0" d="M431.1,36.7c3.2,3.5,4.8,8.4,4.8,14.8v26.8h-9.5V52.5c0-4.1-1.1-7.3-3.2-9.6s-5-3.4-8.7-3.4
		c-3.8,0-6.8,1.2-9.1,3.6c-2.3,2.4-3.4,6-3.4,10.7v24.5h-9.5v-46h9.5v10.1c1.2-3.5,3.3-6.1,6.2-8c2.9-1.9,6.2-2.8,10-2.8
		C423.5,31.5,427.8,33.3,431.1,36.7z"/>
	<path class="st0" d="M482.3,36.4c3.9,3.2,6.3,7.4,7.3,12.8h-10.1c-0.6-2.9-1.9-5.2-4.1-6.8c-2.1-1.6-4.8-2.5-8.1-2.5
		c-3.7,0-6.7,1.3-9.2,3.9c-2.5,2.6-3.7,6.4-3.7,11.4s1.2,8.8,3.7,11.5c2.5,2.6,5.5,3.9,9.2,3.9c3.2,0,5.9-0.8,8.1-2.5
		c2.1-1.7,3.5-4,4.1-6.9h10.1c-0.9,5.4-3.4,9.7-7.3,12.9c-3.9,3.2-8.8,4.8-14.8,4.8c-4.5,0-8.4-0.9-11.8-2.8s-6.1-4.6-8.1-8.2
		s-2.9-7.8-2.9-12.6s1-9,2.9-12.5c2-3.6,4.6-6.3,8.1-8.2c3.4-1.9,7.4-2.8,11.8-2.8C473.5,31.7,478.4,33.3,482.3,36.4z"/>
	<path class="st0" d="M499.1,14.9c1.1-1.1,2.6-1.6,4.4-1.6s3.3,0.5,4.5,1.6c1.1,1.1,1.7,2.4,1.7,4s-0.6,2.9-1.7,3.9
		s-2.6,1.5-4.5,1.5s-3.3-0.5-4.4-1.5s-1.7-2.3-1.7-3.9C497.5,17.3,498,16,499.1,14.9z M508.3,32.3v46.1h-9.5V32.3H508.3z"/>
	<path class="st0" d="M549.1,34.8c3,2.1,5,4.8,6.3,8.2V32.3h9.5v46.1h-9.5V67.7c-1.2,3.4-3.3,6.1-6.3,8.2s-6.5,3.1-10.7,3.1
		c-4,0-7.6-0.9-10.7-2.8c-3.2-1.9-5.6-4.6-7.4-8.2c-1.8-3.6-2.7-7.8-2.7-12.6s0.9-9,2.7-12.5c1.8-3.6,4.2-6.3,7.4-8.2
		c3.1-1.9,6.7-2.8,10.7-2.8C542.5,31.7,546.1,32.7,549.1,34.8z M531.1,44.1c-2.5,2.7-3.8,6.4-3.8,11.2c0,4.7,1.3,8.5,3.8,11.2
		c2.5,2.7,5.9,4.1,10.2,4.1c2.7,0,5.1-0.6,7.2-1.9c2.1-1.3,3.8-3,5-5.3s1.8-5,1.8-8s-0.6-5.7-1.8-8s-2.9-4.1-5-5.4
		c-2.1-1.3-4.5-1.9-7.2-1.9C537,40.1,533.7,41.4,531.1,44.1z"/>
	<path class="st0" d="M585.8,16.5v61.9h-9.5V16.5H585.8z"/>
	<path class="st0" d="M243.7,135.2c3,2.1,5,4.8,6.3,8.2v-10.7h9.5v46.1H250V168c-1.2,3.4-3.3,6.1-6.3,8.2c-3,2.1-6.5,3.1-10.7,3.1
		c-4,0-7.6-0.9-10.7-2.8c-3.2-1.9-5.6-4.6-7.4-8.2c-1.8-3.6-2.7-7.8-2.7-12.6s0.9-9,2.7-12.5s4.3-6.3,7.4-8.2
		c3.1-1.9,6.7-2.8,10.7-2.8C237.2,132.1,240.8,133.1,243.7,135.2z M225.8,144.5c-2.5,2.7-3.8,6.4-3.8,11.2s1.3,8.5,3.8,11.2
		s5.9,4.1,10.2,4.1c2.7,0,5.1-0.6,7.2-1.9c2.1-1.3,3.8-3,5-5.3s1.8-5,1.8-8s-0.6-5.7-1.8-8s-2.9-4.1-5-5.4c-2.1-1.3-4.5-1.9-7.2-1.9
		C231.7,140.4,228.3,141.8,225.8,144.5z"/>
	<path class="st0" d="M299.1,136.2c3.3,2.8,5.3,6.5,6,11.1h-9c-0.4-2.5-1.5-4.5-3.2-6.1c-1.8-1.5-4.1-2.3-7-2.3
		c-2.4,0-4.3,0.6-5.6,1.7c-1.3,1.1-2,2.7-2,4.6c0,1.4,0.5,2.6,1.4,3.5s2.1,1.6,3.6,2.1c1.4,0.5,3.4,1.1,6.1,1.7
		c3.5,0.8,6.3,1.6,8.4,2.4c2.1,0.8,4,2.2,5.5,4s2.3,4.3,2.3,7.4c0,3.8-1.5,7-4.4,9.4s-6.9,3.6-11.8,3.6c-5.7,0-10.4-1.3-13.9-4
		s-5.7-6.4-6.4-11.2h9.3c0.3,2.5,1.4,4.5,3.3,6.1c2,1.6,4.5,2.3,7.7,2.3c2.3,0,4.1-0.6,5.4-1.8s2-2.7,2-4.6c0-1.6-0.5-2.9-1.5-3.8
		c-1-0.9-2.3-1.7-3.8-2.2s-3.6-1.1-6.2-1.6c-3.3-0.8-6.1-1.6-8.2-2.3s-3.9-2-5.4-3.8s-2.2-4.1-2.2-7.2c0-3.9,1.5-7.1,4.4-9.5
		s7-3.6,12.2-3.6C291.5,132.1,295.8,133.4,299.1,136.2z"/>
	<path class="st0" d="M343.3,136.2c3.3,2.8,5.3,6.5,6,11.1h-9c-0.4-2.5-1.5-4.5-3.2-6.1c-1.8-1.5-4.1-2.3-7-2.3
		c-2.4,0-4.3,0.6-5.6,1.7c-1.3,1.1-2,2.7-2,4.6c0,1.4,0.5,2.6,1.4,3.5s2.1,1.6,3.6,2.1s3.4,1.1,6.1,1.7c3.5,0.8,6.3,1.6,8.4,2.4
		c2.1,0.8,4,2.2,5.5,4s2.3,4.3,2.3,7.4c0,3.8-1.5,7-4.4,9.4s-6.9,3.6-11.8,3.6c-5.7,0-10.4-1.3-13.9-4s-5.7-6.4-6.4-11.2h9.3
		c0.3,2.5,1.4,4.5,3.3,6.1c2,1.6,4.5,2.3,7.7,2.3c2.3,0,4.1-0.6,5.4-1.8s2-2.7,2-4.6c0-1.6-0.5-2.9-1.5-3.8c-1-0.9-2.3-1.7-3.8-2.2
		s-3.6-1.1-6.2-1.6c-3.3-0.8-6.1-1.6-8.2-2.3c-2.1-0.8-3.9-2-5.4-3.8s-2.2-4.1-2.2-7.2c0-3.9,1.5-7.1,4.4-9.5s7-3.6,12.2-3.6
		C335.7,132.1,340,133.4,343.3,136.2z"/>
	<path class="st0" d="M359.6,115.2c1.1-1.1,2.6-1.6,4.4-1.6s3.3,0.5,4.5,1.6c1.1,1.1,1.7,2.4,1.7,4s-0.6,2.9-1.7,3.9
		s-2.6,1.5-4.5,1.5s-3.3-0.5-4.4-1.5s-1.7-2.3-1.7-3.9S358.5,116.3,359.6,115.2z M368.8,132.6v46.1h-9.5v-46.1H368.8z"/>
	<path class="st0" d="M408.5,136.2c3.3,2.8,5.3,6.5,6,11.1h-9c-0.4-2.5-1.5-4.5-3.2-6.1c-1.8-1.5-4.1-2.3-7-2.3
		c-2.4,0-4.3,0.6-5.6,1.7c-1.3,1.1-2,2.7-2,4.6c0,1.4,0.5,2.6,1.4,3.5s2.1,1.6,3.6,2.1c1.4,0.5,3.4,1.1,6.1,1.7
		c3.5,0.8,6.3,1.6,8.4,2.4c2.1,0.8,4,2.2,5.5,4s2.3,4.3,2.3,7.4c0,3.8-1.5,7-4.4,9.4s-6.9,3.6-11.8,3.6c-5.7,0-10.4-1.3-13.9-4
		s-5.7-6.4-6.4-11.2h9.3c0.3,2.5,1.4,4.5,3.3,6.1c2,1.6,4.5,2.3,7.7,2.3c2.3,0,4.1-0.6,5.4-1.8s2-2.7,2-4.6c0-1.6-0.5-2.9-1.5-3.8
		c-1-0.9-2.3-1.7-3.8-2.2s-3.6-1.1-6.2-1.6c-3.3-0.8-6.1-1.6-8.2-2.3s-3.9-2-5.4-3.8s-2.2-4.1-2.2-7.2c0-3.9,1.5-7.1,4.4-9.5
		s7-3.6,12.2-3.6C400.9,132.1,405.2,133.4,408.5,136.2z"/>
	<path class="st0" d="M447.7,170.4v8.3h-5.9c-4.9,0-8.6-1.2-11.2-3.6c-2.5-2.4-3.8-6.3-3.8-11.8v-22.6h-6.6v-8.1h6.6v-11.5h9.6v11.5
		h11.1v8.1h-11.1v22.7c0,2.6,0.5,4.4,1.5,5.4s2.7,1.5,5.1,1.5h4.7V170.4z"/>
	<path class="st0" d="M485.8,135.2c3,2.1,5,4.8,6.3,8.2v-10.7h9.5v46.1h-9.5V168c-1.2,3.4-3.3,6.1-6.3,8.2c-3,2.1-6.5,3.1-10.7,3.1
		c-4,0-7.6-0.9-10.7-2.8c-3.2-1.9-5.6-4.6-7.4-8.2c-1.8-3.6-2.7-7.8-2.7-12.6s0.9-9,2.7-12.5s4.3-6.3,7.4-8.2s6.7-2.8,10.7-2.8
		C479.3,132.1,482.8,133.1,485.8,135.2z M467.9,144.5c-2.5,2.7-3.8,6.4-3.8,11.2s1.3,8.5,3.8,11.2s5.9,4.1,10.2,4.1
		c2.7,0,5.1-0.6,7.2-1.9c2.1-1.3,3.8-3,5-5.3s1.8-5,1.8-8s-0.6-5.7-1.8-8c-1.2-2.3-2.9-4.1-5-5.4c-2.1-1.3-4.5-1.9-7.2-1.9
		C473.8,140.4,470.4,141.8,467.9,144.5z"/>
	<path class="st0" d="M551.7,137.1c3.2,3.5,4.8,8.4,4.8,14.8v26.8H547v-25.8c0-4.1-1.1-7.3-3.2-9.6c-2.1-2.3-5-3.4-8.7-3.4
		c-3.8,0-6.8,1.2-9.1,3.6s-3.4,6-3.4,10.7v24.5h-9.5v-46.1h9.5v10.1c1.2-3.5,3.3-6.1,6.2-8s6.2-2.8,10-2.8
		C544.2,131.9,548.5,133.6,551.7,137.1z"/>
	<path class="st0" d="M590.8,170.4v8.3H585c-4.9,0-8.6-1.2-11.2-3.6c-2.5-2.4-3.8-6.3-3.8-11.8v-22.6h-6.6v-8.1h6.6v-11.5h9.6v11.5
		h11.1v8.1h-11.1v22.7c0,2.6,0.5,4.4,1.5,5.4s2.7,1.5,5.1,1.5h4.6V170.4z"/>
</g>
<polygon class="st1" points="-31,-724.9 -28.8,-724.9 -28.8,-724.9 "/>
<g>
	<path class="st2" d="M168.3,59.4h-0.2h-9.9V48.9c0-1.4-0.6-2.8-1.7-3.7c-1.1-0.9-2.5-1.4-3.9-1.2l-122,15.4H19.9
		c-2.7,0-4.9,2.2-4.9,4.9v83.9c0,2.7,2.2,4.9,4.9,4.9H168c2.7,0,4.9-2.2,4.9-4.9V64.3C173,61.6,170.9,59.5,168.3,59.4z M138.8,69.2
		H49.2c-2.1,12.4-11.9,22.2-24.3,24.3V119c12.4,2.1,22.2,11.9,24.3,24.3h89.7c2.1-12.4,11.9-22.2,24.3-24.3V93.5
		C150.7,91.4,140.9,81.6,138.8,69.2z M24.9,129.1c6.9,1.8,12.4,7.3,14.2,14.2H24.9V129.1z M163.1,129.1v14.2h-14.2
		C150.7,136.4,156.2,130.9,163.1,129.1z M24.9,69.2h14.2c-1.8,6.9-7.3,12.4-14.2,14.2C24.9,83.4,24.9,69.2,24.9,69.2z M163.1,83.4
		c-6.9-1.8-12.4-7.3-14.2-14.2h14.2V83.4z M110.8,59.2l37.5-4.8v4.9L110.8,59.2z"/>
	<path class="st2" d="M89.1,82.5c-7.4,2.9-11.7,12.1-6.1,21c2.3,3.7,6.7,5.3,11,5.2c2.1,0,3.7,1.6,3.7,3.7s-1.6,4.3-3.7,4.3
		c-1.5,0-2.8-0.9-3.3-2.1c-1.2-2.5-4.1-3.5-6.6-2.3s-3.5,4.1-2.3,6.6c1.5,3.1,4.1,5.6,7.3,6.8v3.4c0,2.7,2.2,4.9,4.9,4.9
		s4.9-2.2,4.9-4.9v-3.5c5-2.1,8.6-7.5,8.6-13.1c0-7.5-6.1-13.6-13.6-13.6c-2,0-3.7-1.7-3.7-3.7s1.7-3.7,3.7-3.7
		c1.5,0,2.8,0.9,3.3,2.1c1.2,2.5,4.1,3.5,6.6,2.3s3.5-4.1,2.3-6.6c-1.5-3.1-4.1-5.6-7.3-6.8v-3.4c0-2.7-2.2-4.9-4.9-4.9
		S89,76.4,89,79.1C89.1,79.1,89.1,82.5,89.1,82.5z"/>
	<path class="st2" d="M74.2,168v-9.9l-29.6,14.8l29.6,14.8v-9.9h69.1c2.7,0,4.9-2.2,4.9-4.9s-2.2-4.9-4.9-4.9L74.2,168L74.2,168z"/>
	<path class="st2" d="M113.8,24.8H44.6c-2.7,0-4.9,2.2-4.9,4.9s2.2,4.9,4.9,4.9h69.1v9.9l29.6-14.8l-29.6-14.8L113.8,24.8
		L113.8,24.8z"/>
</g>
</svg>
